<?xml version="1.0" encoding="UTF-8" standalone="no"?>
<svg
   xmlns:dc="http://purl.org/dc/elements/1.1/"
   xmlns:cc="http://creativecommons.org/ns#"
   xmlns:rdf="http://www.w3.org/1999/02/22-rdf-syntax-ns#"
   xmlns:svg="http://www.w3.org/2000/svg"
   xmlns="http://www.w3.org/2000/svg"
   xmlns:sodipodi="http://sodipodi.sourceforge.net/DTD/sodipodi-0.dtd"
   xmlns:inkscape="http://www.inkscape.org/namespaces/inkscape"
   inkscape:version="1.0 (4035a4fb49, 2020-05-01)"
   sodipodi:docname="app_alt.svg"
   id="svg1512"
   version="1.1"
   class="svg-inline--fa fa-window-alt fa-w-16 fa-3x"
   viewBox="0 0 512 512"
   role="img"
   data-icon="window-alt"
   data-prefix="fad"
   focusable="false"
   aria-hidden="true">
  <metadata
     id="metadata1518">
    <rdf:RDF>
      <cc:Work
         rdf:about="">
        <dc:format>image/svg+xml</dc:format>
        <dc:type
           rdf:resource="http://purl.org/dc/dcmitype/StillImage" />
        <dc:title></dc:title>
      </cc:Work>
    </rdf:RDF>
  </metadata>
  <defs
     id="defs1516" />
  <sodipodi:namedview
     inkscape:current-layer="g1510"
     inkscape:window-maximized="1"
     inkscape:window-y="0"
     inkscape:window-x="0"
     inkscape:cy="203.46255"
     inkscape:cx="-28.713135"
     inkscape:zoom="0.70710678"
     showgrid="false"
     id="namedview1514"
     inkscape:window-height="1032"
     inkscape:window-width="1920"
     inkscape:pageshadow="2"
     inkscape:pageopacity="0"
     guidetolerance="10"
     gridtolerance="10"
     objecttolerance="10"
     borderopacity="1"
     bordercolor="#666666"
     pagecolor="#ffffff" />
  <g
     id="g1510"
     class="fa-group">
    <path
       style="display:inline"
       id="path1506"
       class="fa-secondary"
       d="M 464,32 H 48 A 48,48 0 0 0 0,80 v 80 H 512 V 80 A 48,48 0 0 0 464,32 Z m -240,96 a 32,32 0 1 1 32,-32 32,32 0 0 1 -32,32 z m 96,0 a 32,32 0 1 1 32,-32 32,32 0 0 1 -32,32 z m 96,0 a 32,32 0 1 1 32,-32 32,32 0 0 1 -32,32 z"
       fill="#fafafa" />
    <path
       d="M 223.99805,63.982422 A 31.997118,32.005043 0 0 0 192,95.988281 31.997118,32.005043 0 0 0 223.99805,127.99219 31.997118,32.005043 0 0 0 255.99414,95.988281 31.997118,32.005043 0 0 0 223.99805,63.982422 Z M 320.16211,64 A 32,32 0 0 0 288,96 a 32,32 0 0 0 32,32 32.000103,32.000103 0 0 0 0.16211,-64 z m 96,0 A 32,32 0 0 0 384,96 a 32,32 0 0 0 32,32 32.000103,32.000103 0 0 0 0.16211,-64 z M 0,160 v 272 a 48,48 0 0 0 48,48 h 416 a 48,48 0 0 0 48,-48 V 160 Z"
       style="display:inline;fill:#9e9e9e;fill-opacity:1"
       clip-path="none"
       id="path1508" />
  </g>
</svg>
